Coordinates
version=1
nRows=10
nColumns=40
inDegrees=yes

Units are S.I. units (second, meters, Newtons, ...)
Angles are in degrees.

endheader
time	pelvis_tilt	pelvis_list	pelvis_rotation	pelvis_tx	pelvis_ty	pelvis_tz	hip_flexion_r	hip_adduction_r	hip_rotation_r	knee_angle_r	knee_angle_r_beta	ankle_angle_r	subtalar_angle_r	mtp_angle_r	hip_flexion_l	hip_adduction_l	hip_rotation_l	knee_angle_l	knee_angle_l_beta	ankle_angle_l	subtalar_angle_l	mtp_angle_l	lumbar_extension	lumbar_bending	lumbar_rotation	arm_flex_r	arm_add_r	arm_rot_r	elbow_flex_r	pro_sup_r	wrist_flex_r	wrist_dev_r	arm_flex_l	arm_add_l	arm_rot_l	elbow_flex_l	pro_sup_l	wrist_flex_l	wrist_dev_l
     36.96000000	     -4.18088312	     -4.05419456	     -0.52362836	      1.06530491	      0.93340346	      0.41535872	     31.94218806	     -8.03025680	     -6.65421990	     70.17986340	     70.17986340	     -2.01687976	    -18.21437597	      5.54161614	     13.50151043	     -4.23517822	     -8.92860861	     21.43486698	     21.43486698	     13.86964353	    -11.54914936	      1.51629252	    -10.23524996	      7.74121905	      2.75601847	     17.28127551	    -12.58358440	    -14.60290536	     47.81853901	     45.40097253	      0.00000000	      0.00000000	     10.09428271	    -12.72205374	     -1.58663936	     55.85707371	     46.15934029	      0.00000000	      0.00000000
     36.97114286	     -4.10801099	     -4.22432651	     -0.89123679	      1.06473104	      0.93405524	      0.41580990	     33.11197662	     -7.56328049	     -6.57040042	     68.58837376	     68.58837376	     -1.79897735	    -17.83561063	      5.27174354	     12.35509136	     -4.36264269	     -9.02957472	     20.68463600	     20.68463600	     14.09773621	    -11.79257491	      1.69078917	    -10.50904592	      7.91245014	      3.27201472	     15.32451962	    -12.96399308	    -14.52912152	     45.26792384	     45.48855896	      0.00000000	      0.00000000	     12.14136292	    -13.09368486	     -1.76112179	     57.53143842	     46.22488709	      0.00000000	      0.00000000
     36.98228571	     -4.04929992	     -4.40806387	     -1.22414935	      1.06414991	      0.93450950	      0.41631267	     34.13859860	     -7.07185332	     -6.51740520	     66.77662514	     66.77662514	     -1.75817904	    -17.34514645	      4.86545004	     11.31369450	     -4.56108696	     -9.30119346	     20.10439119	     20.10439119	     14.42854760	    -11.63856648	      1.58657860	    -10.79472464	      8.05387037	      3.66166349	     13.65168627	    -13.27530328	    -14.39291912	     42.23968949	     45.59350972	      0.00000000	      0.00000000	     14.03190442	    -13.55093218	     -1.77989136	     59.43273859	     46.28083164	      0.00000000	      0.00000000
     36.99342857	     -4.01428159	     -4.56525754	     -1.50593558	      1.06362693	      0.93476392	      0.41681440	     34.96203155	     -6.63329433	     -6.52829211	     64.61373427	     64.61373427	     -2.13321370	    -16.92694397	      3.16621573	     10.37494031	     -4.76570702	     -9.70325193	     19.64436680	     19.64436680	     14.63466127	    -11.34982544	      1.07815308	    -10.88412902	      8.18293944	      2.82262936	     14.36166192	    -12.88810851	    -13.97727145	     34.91513868	     45.88267943	      0.00000000	      0.00000000	     14.89480760	    -15.17681086	     -1.24466374	     62.25594398	     46.35833790	      0.00000000	      0.00000000
     37.00457143	     -3.93627397	     -4.71387427	     -1.79642123	      1.06319695	      0.93501736	      0.41734268	     35.62419632	     -6.15582256	     -6.45543687	     62.25937888	     62.25937888	     -2.01168898	    -16.10256659	      3.06428025	      9.34503816	     -4.91627152	    -10.00631931	     19.10557963	     19.10557963	     14.94344822	    -11.17631685	      1.02853575	    -11.16748826	      8.32652008	      3.17081244	     12.54341029	    -13.13695005	    -13.91892162	     32.93313647	     45.95250314	      0.00000000	      0.00000000	     16.77287303	    -15.47424956	     -1.80445913	     64.00142115	     46.45512705	      0.00000000	      0.00000000
     37.01571429	     -4.07079793	     -4.79623510	     -2.01169338	      1.06260433	      0.93470794	      0.41790341	     36.41604955	     -5.76567633	     -6.38293480	     59.69160446	     59.69160446	     -1.89401544	    -15.15280841	      3.15980157	      8.74663503	     -5.01594063	    -10.20019312	     18.88417012	     18.88417012	     15.25760994	    -11.14169245	      0.92609820	    -11.16039806	      8.44683660	      2.72539448	     10.92356390	    -12.93809878	    -13.88384772	     31.93291423	     45.98021234	      0.00000000	      0.00000000	     18.38477305	    -16.42998523	     -2.24254866	     64.86610276	     46.51425263	      0.00000000	      0.00000000
     37.02685714	     -3.87581795	     -5.01978285	     -2.24140986	      1.06242550	      0.93494079	      0.41854723	     36.48468569	     -5.28006715	     -6.47026754	     56.53715480	     56.53715480	     -2.17269294	    -14.03376340	      1.70535733	      7.54149648	     -5.28284808	    -10.72434523	     18.27336208	     18.27336208	     15.52870769	    -10.51830049	      0.43885392	    -11.55507030	      8.62467293	      2.78888617	     10.90899759	    -13.06118340	    -13.50405016	     25.65516424	     46.25966209	      0.00000000	      0.00000000	     19.45088451	    -17.17275337	     -2.24343225	     68.43339176	     46.64433937	      0.00000000	      0.00000000
     37.03800000	     -3.88440307	     -5.09072056	     -2.41057556	      1.06219796	      0.93466557	      0.41915307	     36.67197157	     -4.94000739	     -6.46975054	     53.15327685	     53.15327685	     -2.28080052	    -12.78239412	      0.72267160	      6.66983034	     -5.34137442	    -10.95558657	     17.81923026	     17.81923026	     15.80403959	    -10.33730404	      0.28274687	    -11.70177199	      8.70235995	      2.62650046	      9.52562197	    -13.01968084	    -13.72500046	     23.68546851	     46.40202046	      0.00000000	      0.00000000	     20.73442226	    -17.55855402	     -3.24828346	     70.61431285	     46.82714797	      0.00000000	      0.00000000
     37.04914286	     -3.89797260	     -5.16316598	     -2.54760454	      1.06207192	      0.93426802	      0.41978329	     36.66875898	     -4.64169687	     -6.57969443	     49.45964207	     49.45964207	     -2.03681820	    -11.15693051	      0.62545024	      5.82891954	     -5.40827701	    -11.18374058	     17.42557069	     17.42557069	     16.11527004	    -10.09154183	      0.15630003	    -11.82908759	      8.79189469	      2.75244125	      7.65553505	    -13.07171304	    -13.75572037	     22.60301455	     46.44923850	      0.00000000	      0.00000000	     22.31493592	    -17.92780162	     -3.59389816	     72.21773485	     46.90096742	      0.00000000	      0.00000000
     37.06028571	     -3.96996809	     -5.25666400	     -2.61208137	      1.06205251	      0.93368853	      0.42041963	     36.48454904	     -4.33363118	     -6.80279654	     45.39072673	     45.39072673	     -1.78839009	     -9.51867613	      0.61478481	      5.09499969	     -5.50844796	    -11.34519825	     17.10591553	     17.10591553	     16.41612422	     -9.86047122	     -0.00270813	    -11.85258016	      8.94790878	      2.68201883	      5.81049289	    -13.06132629	    -13.79337213	     21.72161779	     46.48451409	      0.00000000	      0.00000000	     23.72640408	    -18.36713801	     -3.89606863	     73.74303764	     46.96428749	      0.00000000	      0.00000000
